<svg width="35" height="35" viewBox="0 0 35 35" fill="none" xmlns="http://www.w3.org/2000/svg">
<mask id="mask0_2_8" style="mask-type:alpha" maskUnits="userSpaceOnUse" x="0" y="0" width="35" height="35">
<rect x="0.900024" y="0.5" width="34" height="34" fill="url(#paint0_linear_2_8)"/>
</mask>
<g mask="url(#mask0_2_8)">
<path d="M6.49998 29.9V23.95L24.945 5.54C25.225 5.26 25.54 5.05 25.89 4.91C26.24 4.77 26.59 4.7 26.94 4.7C27.3133 4.7 27.6691 4.77 28.0075 4.91C28.3458 5.05 28.6433 5.26 28.9 5.54L30.86 7.5C31.14 7.75667 31.35 8.05417 31.49 8.3925C31.63 8.73083 31.7 9.08667 31.7 9.46C31.7 9.81 31.63 10.16 31.49 10.51C31.35 10.86 31.14 11.175 30.86 11.455L12.45 29.9H6.49998ZM9.29998 27.1H11.26L25.015 13.38L24.035 12.365L23.02 11.385L9.29998 25.14V27.1ZM24.035 12.365L23.02 11.385L25.015 13.38L24.035 12.365ZM20.5 29.9C22.2266 29.9 23.825 29.4683 25.295 28.605C26.765 27.7417 27.5 26.54 27.5 25C27.5 24.16 27.2783 23.4367 26.835 22.83C26.3916 22.2233 25.7966 21.6983 25.05 21.255L22.985 23.32C23.5216 23.5533 23.9416 23.81 24.245 24.09C24.5483 24.37 24.7 24.6733 24.7 25C24.7 25.5367 24.2741 26.0208 23.4225 26.4525C22.5708 26.8842 21.5966 27.1 20.5 27.1C20.1033 27.1 19.7708 27.2342 19.5025 27.5025C19.2341 27.7708 19.1 28.1033 19.1 28.5C19.1 28.8967 19.2341 29.2292 19.5025 29.4975C19.7708 29.7658 20.1033 29.9 20.5 29.9ZM7.30498 19.19L9.40498 17.09C8.93831 16.9033 8.57081 16.7108 8.30248 16.5125C8.03414 16.3142 7.89998 16.11 7.89998 15.9C7.89998 15.62 8.10998 15.34 8.52998 15.06C8.94998 14.78 9.83664 14.3483 11.19 13.765C13.2433 12.8783 14.6083 12.0733 15.285 11.35C15.9616 10.6267 16.3 9.81 16.3 8.9C16.3 7.61667 15.7866 6.59583 14.76 5.8375C13.7333 5.07917 12.38 4.7 10.7 4.7C9.64998 4.7 8.71081 4.88667 7.88248 5.26C7.05414 5.63333 6.41831 6.08833 5.97498 6.625C5.71831 6.92833 5.61331 7.26667 5.65998 7.64C5.70664 8.01333 5.88164 8.31667 6.18498 8.55C6.48831 8.80667 6.82664 8.91167 7.19998 8.865C7.57331 8.81833 7.88831 8.66667 8.14498 8.41C8.47164 8.08333 8.83331 7.85 9.22998 7.71C9.62664 7.57 10.1166 7.5 10.7 7.5C11.6566 7.5 12.3625 7.64 12.8175 7.92C13.2725 8.2 13.5 8.52667 13.5 8.9C13.5 9.22667 13.2958 9.52417 12.8875 9.7925C12.4791 10.0608 11.54 10.5333 10.07 11.21C8.20331 12.0267 6.90831 12.7675 6.18498 13.4325C5.46164 14.0975 5.09998 14.92 5.09998 15.9C5.09998 16.6467 5.29831 17.2825 5.69498 17.8075C6.09164 18.3325 6.62831 18.7933 7.30498 19.19Z" fill="url(#paint1_linear_2_8)"/>
</g>
<defs>
<linearGradient id="paint0_linear_2_8" x1="8.69169" y1="0.5" x2="29.9417" y2="28.8333" gradientUnits="userSpaceOnUse">
<stop stop-color="#E7FE57"/>
<stop offset="1" stop-color="#6EFF51"/>
</linearGradient>
<linearGradient id="paint1_linear_2_8" x1="11.1958" y1="4.7" x2="26.6885" y2="26.5045" gradientUnits="userSpaceOnUse">
<stop stop-color="#E7FE57"/>
<stop offset="1" stop-color="#6EFF51"/>
</linearGradient>
</defs>
</svg>
